<svg width="150" height="151" viewBox="0 0 150 151" fill="none" xmlns="http://www.w3.org/2000/svg">
<rect width="149.224" height="150.888" rx="74.6121" fill="#5C4590"/>
<path d="M67.8319 29H81.3923C85.0432 29 88.0029 31.9597 88.0029 35.6106C88.0029 39.2616 90.9626 42.2213 94.6136 42.2213C98.2645 42.2213 101.224 45.181 101.224 48.8319V49.0015C101.224 52.7461 98.1887 55.7816 94.444 55.7816H94.2745C90.6236 55.7816 87.6639 52.8219 87.6639 49.171C87.6639 45.52 84.7042 42.5603 81.0532 42.5603H68.3405C64.5958 42.5603 61.5603 45.5958 61.5603 49.3405V61.8837C61.5603 65.6284 64.5958 68.6639 68.3405 68.6639H81.3923C85.0432 68.6639 88.0029 71.6236 88.0029 75.2745C88.0029 78.9255 90.9626 81.8852 94.6136 81.8852C98.2645 81.8852 101.224 84.8449 101.224 88.4958V102.056C101.224 105.707 98.2645 108.667 94.6136 108.667C90.9626 108.667 88.0029 111.626 88.0029 115.277C88.0029 118.928 85.0432 121.888 81.3923 121.888H67.8319C64.181 121.888 61.2213 118.928 61.2213 115.277C61.2213 111.626 58.2616 108.667 54.6106 108.667C50.9597 108.667 48 105.707 48 102.056V101.887C48 98.142 51.0355 95.1065 54.7802 95.1065H54.9497C58.6006 95.1065 61.5603 98.0662 61.5603 101.717C61.5603 105.368 64.52 108.328 68.171 108.328H80.8837C84.6284 108.328 87.6639 105.292 87.6639 101.548V89.0044C87.6639 85.2597 84.6284 82.2242 80.8837 82.2242H67.8319C64.181 82.2242 61.2213 79.2645 61.2213 75.6136C61.2213 71.9626 58.2616 69.0029 54.6106 69.0029C50.9597 69.0029 48 66.0432 48 62.3923V48.8319C48 45.181 50.9597 42.2213 54.6106 42.2213C58.2616 42.2213 61.2213 39.2616 61.2213 35.6106C61.2213 31.9597 64.181 29 67.8319 29Z" fill="#E2DCD4"/>
</svg>
